<svg width="512" height="512" viewBox="0 0 512 512" fill="none" xmlns="http://www.w3.org/2000/svg">
<g style="mix-blend-mode:multiply" clip-path="url(#clip0)">
<rect width="512.001" height="512.001" fill="#D3ECFB"/>
<rect width="512.001" height="512.001" fill="url(#paint0_linear)"/>
<path d="M256.488 195.673C252.792 188.28 242.241 188.28 238.545 195.673L203.163 266.438C198.856 275.051 186.564 275.051 182.258 266.438C178.561 259.045 168.01 259.045 164.315 266.438L99.2588 394.52L154.242 504.485H203.035L307.472 295.61L256.488 195.673Z" fill="#A86D38"/>
<path d="M203.933 266.438C208.239 275.051 220.531 275.051 224.838 266.438L258.373 199.367L256.489 195.673C252.793 188.28 242.242 188.28 238.546 195.673L203.516 265.734C203.656 265.968 203.808 266.188 203.933 266.438Z" fill="#995F30"/>
<path d="M122.182 392.061L184.446 269.476C183.598 268.62 182.849 267.617 182.259 266.438C178.562 259.045 168.011 259.045 164.316 266.438L99.2588 394.519L154.242 504.484H175.916L122.166 396.985C121.39 395.435 121.396 393.607 122.182 392.061Z" fill="#995F30"/>
<path d="M294.959 491.533C295.085 482.594 300.867 478.287 308.172 479.132C309.963 479.339 311.577 478.164 311.916 476.393C315.746 456.357 342.605 451.854 352.743 469.655C355.42 474.355 359.017 468.615 368.038 471.531C369.224 471.914 370.502 471.734 371.523 471.019C375.97 467.909 381.351 466.886 386.369 467.884C388.02 468.212 389.646 467.155 389.869 465.487C391.918 450.152 405.024 438.318 420.92 438.318C432.653 438.318 442.856 444.772 448.228 454.316C449.457 456.5 451.991 457.597 454.377 456.831C465.355 453.305 477.121 457.646 483.384 467.223L363.046 224.52C358.7 215.827 346.295 215.827 341.948 224.52L202 504.417H306.629C298.996 504.417 294.851 499.191 294.959 491.533Z" fill="#B78046"/>
<path d="M363.066 224.588C358.72 215.895 346.315 215.895 341.968 224.588L202.02 504.485H223.672L363.342 225.145L363.066 224.588Z" fill="#995F30"/>
<path d="M155.257 504.485H19.0254L82.3674 377.802C84.3344 373.868 89.9494 373.868 91.9164 377.802L155.257 504.485Z" fill="#B78046"/>
<path d="M91.9154 377.801C89.9484 373.867 84.3334 373.867 82.3664 377.801L19.0254 504.485H39.8314L97.5444 389.059L91.9154 377.801Z" fill="#A86D38"/>
<path d="M303.68 327.502C307.657 331.18 313.915 330.733 317.327 326.525L326.044 315.773C329.372 311.668 335.434 311.124 339.439 314.571L355.699 328.562C359.446 331.786 365.054 331.546 368.512 328.013L399.135 296.724L363.066 224.587C358.719 215.894 346.315 215.894 341.968 224.587L294.675 319.172L303.68 327.502Z" fill="#CC9562"/>
<path d="M363.066 224.588C362.742 223.941 362.362 223.357 361.956 222.806C356.905 215.959 345.992 216.542 341.969 224.588L301.749 305.028L294.676 319.174L303.68 327.503C305.729 329.399 308.383 330.19 310.943 329.944L363.343 225.146L363.066 224.588Z" fill="#B78046"/>
<path d="M50.4473 441.64L52.2743 443.33C55.3263 446.153 60.1293 445.809 62.7483 442.58L69.4383 434.328C71.9923 431.178 76.6453 430.76 79.7193 433.406L92.1993 444.144C95.0753 446.619 99.3793 446.434 102.033 443.723L117.152 428.275L91.9153 377.802C89.9483 373.868 84.3333 373.868 82.3663 377.802L50.4473 441.64Z" fill="#CC9562"/>
<path d="M82.3672 377.801L66.4702 409.596L50.4482 441.64L52.2752 443.33C55.3272 446.153 60.1302 445.809 62.7492 442.58L69.4392 434.328C71.1272 432.246 73.7312 431.366 76.1902 431.767L97.5442 389.059L91.9162 377.802C91.3012 376.572 90.3302 375.727 89.2262 375.266C88.5632 374.989 87.8532 374.851 87.1422 374.851C85.2462 374.851 83.3502 375.834 82.3672 377.801Z" fill="#B78046"/>
<path d="M139.879 179.259C160.827 179.259 177.808 162.277 177.808 141.33C177.808 120.382 160.827 103.401 139.879 103.401C118.932 103.401 101.95 120.382 101.95 141.33C101.95 162.277 118.932 179.259 139.879 179.259Z" fill="#FED159"/>
<path d="M122.247 141.329C122.247 123.898 134.01 109.223 150.027 104.784C146.795 103.888 143.394 103.4 139.878 103.4C118.93 103.4 101.948 120.382 101.948 141.33C101.948 162.278 118.93 179.259 139.878 179.259C143.395 179.259 146.796 178.77 150.027 177.875C134.01 173.434 122.247 158.76 122.247 141.329Z" fill="#FCB75B"/>
<path d="M139.878 89.6071C135.674 89.6071 132.266 86.1991 132.266 81.9951V67.5161C132.266 63.3121 135.674 59.9041 139.878 59.9041C144.082 59.9041 147.49 63.3121 147.49 67.5161V81.9951C147.49 86.1991 144.082 89.6071 139.878 89.6071Z" fill="#FED159"/>
<path d="M139.878 222.752C135.674 222.752 132.266 219.344 132.266 215.14V200.661C132.266 196.457 135.674 193.049 139.878 193.049C144.082 193.049 147.49 196.457 147.49 200.661V215.14C147.49 219.344 144.082 222.752 139.878 222.752Z" fill="#FED159"/>
<path d="M92.541 104.756L82.303 94.5181C79.33 91.5461 79.33 86.7261 82.303 83.7531C85.275 80.7811 90.095 80.7801 93.068 83.7531L103.307 93.9911C106.28 96.9631 106.28 101.783 103.307 104.756C100.334 107.728 95.514 107.729 92.541 104.756Z" fill="#FED159"/>
<path d="M186.689 198.903L176.451 188.664C173.479 185.691 173.479 180.872 176.451 177.899C179.424 174.926 184.243 174.926 187.216 177.899L197.454 188.138C200.426 191.111 200.426 195.93 197.454 198.903C194.482 201.876 189.663 201.877 186.689 198.903Z" fill="#FED159"/>
<path d="M80.5461 148.941H66.0661C61.8621 148.941 58.4541 145.533 58.4541 141.329C58.4541 137.125 61.8621 133.717 66.0661 133.717H80.5451C84.7491 133.717 88.1571 137.125 88.1571 141.329C88.1571 145.533 84.7501 148.941 80.5461 148.941Z" fill="#FED159"/>
<path d="M213.692 148.941H199.213C195.009 148.941 191.601 145.533 191.601 141.329C191.601 137.125 195.009 133.717 199.213 133.717H213.692C217.896 133.717 221.304 137.125 221.304 141.329C221.304 145.533 217.896 148.941 213.692 148.941Z" fill="#FED159"/>
<path d="M82.303 198.903C79.33 195.931 79.33 191.111 82.303 188.138L92.541 177.9C95.513 174.928 100.333 174.928 103.306 177.9C106.279 180.872 106.279 185.692 103.306 188.665L93.067 198.904C90.094 201.876 85.276 201.876 82.303 198.903Z" fill="#FED159"/>
<path d="M176.451 104.756C173.479 101.784 173.479 96.9641 176.451 93.9911L186.689 83.7531C189.662 80.7811 194.481 80.7801 197.454 83.7531C200.426 86.7261 200.426 91.5451 197.454 94.5181L187.216 104.756C184.244 107.728 179.424 107.729 176.451 104.756Z" fill="#FED159"/>
<path d="M495.541 471.16C493.843 471.139 492.205 471.377 490.661 471.833C488.634 472.432 486.438 471.396 485.629 469.443C480.68 457.496 467.292 450.726 454.396 454.868C452.01 455.635 449.476 454.537 448.247 452.353C442.875 442.809 432.672 436.355 420.939 436.355C405.043 436.355 391.937 448.189 389.888 463.524C389.665 465.192 388.039 466.25 386.388 465.921C381.371 464.923 375.992 465.945 371.542 469.056C370.52 469.77 369.243 469.951 368.057 469.568C359.01 466.644 355.446 472.406 352.762 467.692C342.625 449.893 315.766 454.393 311.935 474.43C311.597 476.201 309.982 477.376 308.191 477.169C300.086 476.232 293.058 482.73 292.948 490.585C292.84 498.242 299.016 504.484 306.649 504.484C324.9 504.484 472.448 504.484 495.337 504.484C504.767 504.484 512.368 496.65 511.986 487.136C511.636 478.393 504.292 471.267 495.541 471.16Z" fill="#99CC56"/>
<path d="M313.247 490.587C313.357 482.731 320.387 476.233 328.49 477.171C330.281 477.378 331.895 476.203 332.234 474.432C333.52 467.704 337.864 462.077 343.755 459.015C330.706 452.209 314.704 459.947 311.935 474.432C311.597 476.203 309.982 477.378 308.191 477.171C300.086 476.233 293.058 482.732 292.948 490.587C292.84 498.244 299.016 504.486 306.648 504.486C309.862 504.486 317.099 504.486 326.947 504.486C319.315 504.485 313.14 498.244 313.247 490.587Z" fill="#8DBC42"/>
<path d="M477.231 504.485C477.231 508.689 473.823 512.097 469.619 512.097H7.612C3.408 512.097 0 508.689 0 504.485C0 500.281 3.408 496.873 7.612 496.873H469.619C473.823 496.873 477.231 500.281 477.231 504.485Z" fill="#8DBC42"/>
</g>
<defs>
<linearGradient id="paint0_linear" x1="256" y1="0" x2="256" y2="512.001" gradientUnits="userSpaceOnUse">
<stop offset="0.244792" stop-color="#9DC4FF"/>
<stop offset="1" stop-color="white" stop-opacity="0"/>
</linearGradient>
<clipPath id="clip0">
<rect width="512.001" height="512.001" fill="white"/>
</clipPath>
</defs>
</svg>
